<svg xmlns="http://www.w3.org/2000/svg" xmlns:xlink="http://www.w3.org/1999/xlink" width="500" zoomAndPan="magnify" viewBox="0 0 375 374.999991" height="500" preserveAspectRatio="xMidYMid meet" version="1.0"><defs><clipPath id="8d97bc34d7"><path d="M 131 147 L 244 147 L 244 228.535156 L 131 228.535156 Z M 131 147 " clip-rule="nonzero"/></clipPath></defs><rect x="-37.5" width="450" fill="#ffffff" y="-37.499999" height="449.999989" fill-opacity="1"/><rect x="-37.5" width="450" fill="#ffffff" y="-37.499999" height="449.999989" fill-opacity="1"/><rect x="-37.5" width="450" fill="#ffffff" y="-37.499999" height="449.999989" fill-opacity="1"/><g clip-path="url(#8d97bc34d7)"><path fill="#000000" d="M 243.800781 212.769531 C 243.480469 208.230469 240.339844 204.074219 236.101562 202.496094 C 221.246094 196.796875 206.4375 190.984375 191.566406 185.351562 C 191.5625 183.226562 191.054688 180.421875 193.238281 179.148438 C 195.515625 178.058594 197.757812 176.769531 199.433594 174.832031 C 203.4375 170.507812 204.742188 163.898438 202.648438 158.375 C 200.238281 151.394531 192.613281 146.789062 185.328125 147.9375 C 177.332031 148.882812 170.738281 156.679688 171.523438 164.785156 C 172.066406 167.617188 175.886719 168.910156 178.015625 166.964844 C 180.101562 165.402344 179.050781 162.519531 180.203125 160.476562 C 181.871094 156.671875 186.636719 154.597656 190.503906 156.199219 C 194.265625 157.542969 196.484375 161.933594 195.46875 165.792969 C 194.871094 168.339844 192.945312 170.460938 190.523438 171.410156 C 187.316406 172.777344 184.816406 175.679688 183.917969 179.058594 C 183.308594 181.085938 183.566406 183.222656 183.445312 185.308594 C 168.597656 190.875 153.835938 196.710938 139.019531 202.382812 C 134.714844 203.949219 131.519531 208.175781 131.230469 212.769531 C 131.128906 215.535156 130.972656 218.4375 132.113281 221.03125 C 133.898438 225.441406 138.476562 228.539062 143.230469 228.472656 L 179.964844 228.472656 L 179.964844 220.394531 C 167.699219 220.394531 155.445312 220.394531 143.179688 220.386719 C 141.066406 220.425781 139.1875 218.503906 139.242188 216.386719 C 139.257812 214.765625 138.941406 212.941406 139.941406 211.53125 C 140.691406 210.351562 142.089844 209.941406 143.316406 209.46875 C 157.609375 203.980469 171.886719 198.425781 186.183594 192.949219 C 187.140625 192.554688 188.207031 192.664062 189.152344 193.046875 C 203.78125 198.699219 218.414062 204.339844 233.042969 209.980469 C 234.648438 210.511719 235.832031 212.097656 235.796875 213.808594 C 235.78125 215.421875 236.097656 217.238281 235.101562 218.648438 C 234.28125 219.898438 232.75 220.511719 231.292969 220.398438 C 219.21875 220.390625 207.144531 220.390625 195.074219 220.390625 L 195.074219 228.472656 L 231.789062 228.472656 C 236.554688 228.539062 241.136719 225.445312 242.921875 221.027344 C 244.058594 218.429688 243.914062 215.535156 243.800781 212.769531 Z M 243.800781 212.769531 " fill-opacity="1" fill-rule="nonzero"/></g></svg>